# xmcd
#
# Track frame offsets:
#	150
#	15030
#	26830
#	41037
#	52825
#	66825
#	82276
#	93662
#	109038
#	127053
#	141115
#	158390
#	172727
#	191069
#	205538
#	220206
#	235998
#	250984
#
# Disc length: 3533 seconds
#
# Revision: 0
# Processed by: cddbd v1.5.1PL2 Copyright (c) Steve Scherf et al.
# Submitted via: audiograbber 1.83.01
#
DISCID=f10dcb12
DTITLE=VERSCHIEDENE - DEUTSCHES COUNTRY-QUARTETT CD 2
DYEAR=1900
DGENRE=Country
TTITLE0=GUDRUN LANGE and KAKTUS - DU BIST NICHT ALLEIN
TTITLE1=TEX HARPER - BIER VON FASS
TTITLE2=GUDRUN LANGE and KAKTUS - EIN DUFT VON HEU
TTITLE3=TEX HARPER - COUNTRY IST MEINE WELT
TTITLE4=GUDRUN LANGE and KAKTUS - GEH' HEUTE NICHT HEIM
TTITLE5=TEX HARPER - GUTE LAUNE
TTITLE6=GUDRUN LANGE and KAKTUS - HAND AUFS HERZ
TTITLE7=TEX HARPER - DER ALTE TRUCKER
TTITLE8=GUDRUN LANGE and KAKTUS - IMMER UNTERWEGS
TTITLE9=TEX HARPER - ZIELLOS GEH ICH DURCH DIE NACHT
TTITLE10=GUDRUN LANGE and KAKTUS - IN EINER FREMDEN STADT
TTITLE11=TEX HARPER - STOP and GO
TTITLE12=GUDRUN LANGE and KAKTUS - SUCHE NACH DEM GLÜCK
TTITLE13=TEX HARPER - NUR WER LIEBT, DER KANN AUCH WEINEN
TTITLE14=GUDRUN LANGE and KAKTUS - WO SIND HEUT' NOCH MÄNNER
TTITLE15=TEX HARPER - 1000 KILOMETER
TTITLE16=GUDRUN LANGE and KAKTUS - AB MORGEN
TTITLE17=TEX HARPER - WILD WILD WESTERN
EXTD=
EXTT0=
EXTT1=
EXTT2=
EXTT3=
EXTT4=
EXTT5=
EXTT6=
EXTT7=
EXTT8=
EXTT9=
EXTT10=
EXTT11=
EXTT12=
EXTT13=
EXTT14=
EXTT15=
EXTT16=
EXTT17=
PLAYORDER=
